<svg xmlns="http://www.w3.org/2000/svg" viewBox="0 0 150 150"><defs><style>.cls-2{fill:#6db9ca}.cls-3{fill:#f4b88e}.cls-6{fill:#f2a57f}.cls-7{fill:#2f1807}.cls-8{fill:#fff}.cls-10{fill:#693d34}.cls-11{fill:#bfe5e5}</style></defs><g style="isolation:isolate"><g id="Capa_1" data-name="Capa 1"><path class="cls-2" d="M62.67 104.13h24.66v9.08H62.67z"/><path class="cls-3" d="M84.89 93.43h-20s.5 12.65-2 16.32h24.2c-2.45-3.67-2.2-16.32-2.2-16.32z"/><path d="M64.6 103a21.37 21.37 0 0010.55 2.81 25.29 25.29 0 0010.23-2.29 80.45 80.45 0 01-.49-10.07h-20a81.52 81.52 0 01-.29 9.55z" style="mix-blend-mode:multiply" fill="#f5dcd6"/><path class="cls-3" d="M113.7 118.52L84.62 108.1H65.34l-29.08 10.42s-10.18 3.35-9 19.6h95.44c1.39-17.25-9-19.6-9-19.6z"/><path d="M113.7 118.52L89.94 110 75 120.42l-14.59-10.55-24.15 8.65s-10.18 3.35-9 19.6h95.44c1.39-17.25-9-19.6-9-19.6z" fill="#184892"/><path class="cls-3" d="M96.94 68.56c-.69 4.28.51 8.07 2.68 8.48s4.47-2.72 5.16-7-.51-8.07-2.68-8.47-4.47 2.72-5.16 6.99z"/><path class="cls-6" d="M99.54 67.41s0-.24.12-.63a8.12 8.12 0 01.52-1.53c.28-.57.71-1.23 1.26-1.27a1.22 1.22 0 01.42.06l.21.11c.05 0 .1.06.15.13a2.21 2.21 0 01.53.93 5.42 5.42 0 01.25 1.21 6.38 6.38 0 010 1.23c-.07.43-.09.87-.17 1.24s-.14.74-.21 1.07-.15.64-.21.92-.14.5-.19.7c-.11.39-.17.62-.17.62s.11-.19.29-.55c.08-.18.21-.39.31-.66s.24-.55.36-.88.23-.71.34-1.11a11.49 11.49 0 00.26-1.25 5.11 5.11 0 00.05-1.46 6.53 6.53 0 00-.27-1.44 3.07 3.07 0 00-.76-1.26 2.32 2.32 0 00-.3-.22c-.12-.06-.16-.06-.3-.12a1.59 1.59 0 00-.65 0 1.69 1.69 0 00-1.07.75 3.85 3.85 0 00-.49 1 6.71 6.71 0 00-.29 1.72 4.08 4.08 0 00.01.69z"/><path class="cls-6" d="M99.54 67.41s-.2-.46 1.23-.56c0 0 1.59.29.66 2.42a6.5 6.5 0 00-.43 1.43c-.14.71.11 1.68-.27 2.31-.49.82-1.75.36-1.82-.58a5.44 5.44 0 011-2.45 1.9 1.9 0 00-.37-2.57z"/><path class="cls-6" d="M98.86 72.34a.41.41 0 00-.11.12 1.15 1.15 0 00-.21.39 1.27 1.27 0 00-.08.31 1.35 1.35 0 000 .35v.38c0 .13.08.23.12.36a1.37 1.37 0 00.16.32 2.52 2.52 0 00.21.25 1 1 0 00.44.31 1.35 1.35 0 00.48.12 3.27 3.27 0 00-.22-.52 1.32 1.32 0 00-.12-.2 1.73 1.73 0 00-.1-.24 2.39 2.39 0 00-.12-.22 1 1 0 01-.09-.24 2.64 2.64 0 01-.17-.47 2 2 0 01-.07-.23v-.23c-.09-.3-.12-.56-.12-.56z"/><path class="cls-3" d="M53.38 68.56c.69 4.28-.51 8.07-2.67 8.48s-4.48-2.72-5.17-7 .51-8.07 2.68-8.47 4.47 2.72 5.16 6.99z"/><path class="cls-6" d="M50.78 67.41s0-.24-.12-.63a8.91 8.91 0 00-.52-1.53c-.27-.57-.71-1.23-1.26-1.27a1.22 1.22 0 00-.42.06l-.21.11s-.1.06-.15.13a2.21 2.21 0 00-.53.93 5.42 5.42 0 00-.25 1.21 5.64 5.64 0 000 1.23c.06.43.08.87.16 1.24s.14.74.21 1.07.15.64.21.92.14.5.19.7c.12.39.17.62.17.62s-.11-.19-.29-.55c-.08-.18-.21-.39-.31-.66s-.23-.55-.36-.88-.23-.71-.3-1.11a11.49 11.49 0 01-.26-1.25 5.5 5.5 0 010-1.46 6.53 6.53 0 01.27-1.44 3.07 3.07 0 01.76-1.26 1.89 1.89 0 01.31-.22 2.85 2.85 0 01.29-.12 1.59 1.59 0 01.65 0A1.69 1.69 0 0150 64a3.85 3.85 0 01.5 1 6.71 6.71 0 01.29 1.72 4.08 4.08 0 01-.01.69z"/><path class="cls-6" d="M50.78 67.41s.2-.46-1.23-.56c0 0-1.59.29-.66 2.42a6.5 6.5 0 01.48 1.43c.14.71-.11 1.68.27 2.31.49.82 1.75.36 1.82-.58a5.33 5.33 0 00-1-2.45 1.91 1.91 0 01.32-2.57z"/><path class="cls-6" d="M51.46 72.34a.41.41 0 01.11.12 1.15 1.15 0 01.21.39 1.27 1.27 0 01.08.31 1 1 0 010 .35v.38c0 .13-.08.23-.12.36a1.37 1.37 0 01-.16.32 2.52 2.52 0 01-.21.25 1 1 0 01-.44.31 1.35 1.35 0 01-.48.12 3.27 3.27 0 01.22-.52 1.32 1.32 0 01.12-.2 1.73 1.73 0 01.1-.24 2.39 2.39 0 01.12-.22 1 1 0 00.09-.24 2 2 0 00.17-.47 2 2 0 00.07-.23c0-.08 0-.16.05-.23a5.26 5.26 0 00.07-.56z"/><path class="cls-3" d="M75.42 22.49h-.68c-17.22.15-26.89 5.05-24.25 36.43l3 25A10.41 10.41 0 0059 91.21l9.35 6.93s4.44 2 6.75 1.78c2.3.19 6.74-1.78 6.74-1.78l9.35-6.93a10.41 10.41 0 005.53-7.29l3.11-24.42c2.64-31.38-7.19-36.86-24.41-37.01z"/><path class="cls-7" d="M62.4 61c0 1.63.93 2.94 2 2.94s2-1.34 2-3-.92-3-2-2.94-2.01 1.34-2 3z"/><path class="cls-8" d="M63.62 60a.88.88 0 11-.87-.88.87.87 0 01.87.88z"/><path class="cls-7" d="M87.92 61c0 1.63-.93 2.94-2 2.94s-2-1.34-2-3 .92-3 2-2.94 2.01 1.34 2 3z"/><path class="cls-8" d="M86.7 60a.88.88 0 10.87-.88.87.87 0 00-.87.88z"/><path d="M78.14 76.85a5.72 5.72 0 01-1.63 1.08 6.63 6.63 0 01-1.94.53 6 6 0 01-2.1-.11 5.53 5.53 0 01-1-.31 7.22 7.22 0 01-1-.47l-.47-.23v-.64a17.58 17.58 0 010-1.91c0-.62.08-1.23.13-1.85s.16-1.22.26-1.83.24-1.21.39-1.81a24.29 24.29 0 011.18-3.49 14.89 14.89 0 01.8-1.66c.29-.55.6-1.08.94-1.6 0 .63-.07 1.24-.14 1.84s-.17 1.19-.22 1.79-.14 1.18-.22 1.77-.12 1.17-.21 1.75-.15 1.17-.21 1.75-.16 1.16-.19 1.74-.12 1.16-.16 1.73-.09 1.17-.12 1.69l-.49-.87c.22.13.41.31.64.43a6.61 6.61 0 00.7.36 5.22 5.22 0 00.75.28c.26 0 .53.14.8.18a6 6 0 00.85.09 8.58 8.58 0 00.88 0 11 11 0 001.78-.23z" fill="#eba17d"/><path class="cls-10" d="M68.67 55a1.41 1.41 0 01-1.6 1 15.62 15.62 0 00-8.19.69 1.47 1.47 0 01-1.75-.8 1.29 1.29 0 01.71-1.83 18.48 18.48 0 019.64-.86 1.44 1.44 0 011.19 1.8zM80.87 55a1.42 1.42 0 001.61 1 15.63 15.63 0 018.19.69 1.46 1.46 0 001.74-.8 1.29 1.29 0 00-.7-1.83 18.53 18.53 0 00-9.65-.86 1.44 1.44 0 00-1.19 1.8z"/><path class="cls-2" d="M75 120.42l-1.96-10.01-10.37-6.28-1.51 6.31L75 120.42z"/><path class="cls-11" d="M73.04 110.41l-4.91 8.98-11.98-8.14 6.52-7.12 10.37 6.28z"/><path class="cls-2" d="M75 120.42l1.96-10.01 10.37-6.28 1.51 6.31L75 120.42z"/><path class="cls-11" d="M76.96 110.41l4.9 8.98 12-8.14-6.53-7.12-10.37 6.28z"/><path d="M76 87.87a5.32 5.32 0 01-2.42 0" fill="none" stroke="#e89780" stroke-linecap="round" stroke-linejoin="round"/><path class="cls-8" d="M69.34 82.86l1.4 2.77S77 89.16 81.47 83a110 110 0 01-12.13-.14z"/><path class="cls-10" d="M95.61 48.06s2.25 1.41 1.75 6.82l-.23 10.72H99s-.13-4.06 3.12-4l1.61-24s1.26-9.56-7-15.12c0 0-6.9-1.81-8.83-7.46a13.47 13.47 0 000 5s-5.55-1.57-4-8.16c0 0-4.44 1.79-4.47 6.28 0 0-.2-5.34-3.39-6.28 0 0 1.17 4.08-2.42 5.65 0 0-15.42-.63-20 6.9 0 0-8.32 4.09-7 21.52l1.61 15.63a8.93 8.93 0 013.67 4h1.68V51.41s-.09-3.35 2.57-3.35c0 0-2.57-12.55 5-14.43 0 0 11.35-3 14.25 2.64 0 0 .47-4.59 14.35-2.82 0 0 8.68 1.23 5.86 14.61z"/></g></g></svg>