<svg xmlns="http://www.w3.org/2000/svg" viewBox="0 0 226.77 71.8"><defs><style>.cls-1{fill:#39b54a;}.cls-2{fill:#fff;}.cls-3{fill:#ef4136;}</style></defs><g id="Layer_2" data-name="Layer 2"><g id="Layer_1-2" data-name="Layer 1"><path class="cls-1" d="M24.75,0h202a0,0,0,0,1,0,0V52.21a19.6,19.6,0,0,1-19.6,19.6H0a0,0,0,0,1,0,0V24.75A24.75,24.75,0,0,1,24.75,0Z"/><path class="cls-2" d="M43.41,30.79a12.74,12.74,0,0,0,1.33-9.21A12.83,12.83,0,0,0,32.1,11.32h0A18.36,18.36,0,0,0,14.17,29.53V59.64l23.67-.06c6.91.06,13.72-7.37,13.72-14.7C51.56,38.53,48.69,33.63,43.41,30.79Zm-18.61.05V28.66a5.83,5.83,0,0,1,6.06-6.44h.28a4.15,4.15,0,0,1,3,1.22,4.68,4.68,0,0,1,1.29,3.34,4.33,4.33,0,0,1-4.21,4.15l-.73.05-.1,0c-1.37.11-3.17.95-5,3l-.53.63Zm8.44,19.21H26.09V43a7.19,7.19,0,0,1,7.05-7.3,7,7,0,0,1,7,7.23A6.93,6.93,0,0,1,33.24,50.05Z"/><path class="cls-2" d="M74.79,38.19l-1.61,0c-3.17,0-5.38,3.18-5.38,5.38l0,16H57.07V40c0-7.16,5.2-12.52,12.33-12.52h5.39Z"/><path class="cls-2" d="M78.51,50.66V27.49h1.9c4.86,0,8.8,4.87,8.8,9V59.64H88.09C83.05,59.64,78.51,55.29,78.51,50.66Z"/><path class="cls-2" d="M94.58,59.56l0-42.68H95.8a8.91,8.91,0,0,1,7,3.27,9.9,9.9,0,0,1,2.43,5.72V59.56Z"/><path class="cls-2" d="M145.74,27.47v2.46c0,4.94-4.84,7.18-5.95,7.18h0V47.32a3,3,0,0,0,2.79,3.23l0,0a4.4,4.4,0,0,1,3,4.33v4.75H139a9.88,9.88,0,0,1-9.73-10V37.21h-4.36V27.49h4.36V19.62l3.76.07a7.69,7.69,0,0,1,6.77,7.1v.7Z"/><path class="cls-2" d="M171.48,57.64a20.28,20.28,0,0,1-1.87,1,15.63,15.63,0,0,1-5.8.93,16.06,16.06,0,0,1-.08-32.1h2.39a16,16,0,0,1,16.09,16.06V59.56h-10.7ZM159,43.76a6.77,6.77,0,0,0,6.71,6.63,6.65,6.65,0,0,0,0-13.29A6.76,6.76,0,0,0,159,43.76Z"/><path class="cls-2" d="M194.45,49.75C194.24,51.9,196,53,199,53c2.17,0,2.89-.85,2.89-1.95,0-2.39-5.25-1.92-10-3.46a9.87,9.87,0,0,1-6.95-9.72c0-6,5.36-10.08,11.49-10.47,3.88-.24,6.81.09,9.52,1.66a11.93,11.93,0,0,1,5.79,9.13H207.2c-3.42.06-4.67-.77-6.2-2.33a4.46,4.46,0,0,0-2.94-.79c-2.08-.08-2.92.73-3,2-.18,2.89,6.75,2,12,4.43a10.17,10.17,0,0,1,5.56,8,12.91,12.91,0,0,1-1.31,5.81c-2,3.61-5.58,5.43-11.56,5.14-1.57-.08-2.62,0-3.89-.16a12.35,12.35,0,0,1-10.91-10.55Z"/><path class="cls-2" d="M110.66,50.62V27.35h1.9c4.86,0,8.79,4.89,8.79,9V59.64h-1.52A9.19,9.19,0,0,1,110.66,50.62Z"/><path class="cls-3" d="M81.65,24.48A19.48,19.48,0,0,0,84.33,23c1.77-1.24,2.43-2.52,3.57-4.29a22.75,22.75,0,0,1-4.05,3.58,15.82,15.82,0,0,1-2.64,1.54c-.87.39-1.8.75-2.7,1.13V22.26a5.35,5.35,0,0,1,5.31-5.38h5.44l0,2.78A5.35,5.35,0,0,1,84,25H80.45A13.08,13.08,0,0,0,81.65,24.48Z"/><path class="cls-3" d="M113.71,24.48A19,19,0,0,0,116.4,23c1.77-1.24,2.43-2.52,3.56-4.29a22.35,22.35,0,0,1-4,3.58,15.52,15.52,0,0,1-2.65,1.54c-.86.39-1.79.75-2.69,1.13V22.26a5.35,5.35,0,0,1,5.31-5.38h5.44l0,2.78a5.34,5.34,0,0,1-5.3,5.38h-3.53A11.78,11.78,0,0,0,113.71,24.48Z"/></g></g></svg>