<svg xmlns="http://www.w3.org/2000/svg" viewBox="0 0 150 150"><defs><style>.cls-1{isolation:isolate;}.cls-2{fill:#6db9ca;}.cls-3{fill:#f4b88e;}.cls-4{fill:#f5dcd6;mix-blend-mode:multiply;}.cls-5{fill:#184892;}.cls-6{fill:#f2a57f;}.cls-7{fill:#2f1807;}.cls-8{fill:#fff;}.cls-9{fill:#eba17d;}.cls-10{fill:#693d34;}.cls-11{fill:#bfe5e5;}.cls-12{fill:none;stroke:#e89780;stroke-linecap:round;stroke-linejoin:round;}</style></defs><g class="cls-1"><g id="Capa_1" data-name="Capa 1"><rect class="cls-2" x="62.67" y="104.13" width="24.66" height="9.08"/><path class="cls-3" d="M84.89,93.43h-20s.5,12.65-2,16.32H87.09C84.64,106.08,84.89,93.43,84.89,93.43Z"/><path class="cls-4" d="M64.6,103a21.37,21.37,0,0,0,10.55,2.81,25.29,25.29,0,0,0,10.23-2.29,80.45,80.45,0,0,1-.49-10.07h-20A81.52,81.52,0,0,1,64.6,103Z"/><path class="cls-3" d="M113.7,118.52,84.62,108.1H65.34L36.26,118.52s-10.18,3.35-9,19.6H122.7C124.09,120.87,113.7,118.52,113.7,118.52Z"/><path class="cls-5" d="M113.7,118.52,89.94,110,75,120.42,60.41,109.87l-24.15,8.65s-10.18,3.35-9,19.6H122.7C124.09,120.87,113.7,118.52,113.7,118.52Z"/><path class="cls-3" d="M96.94,68.56c-.69,4.28.51,8.07,2.68,8.48s4.47-2.72,5.16-7-.51-8.07-2.68-8.47S97.63,64.29,96.94,68.56Z"/><path class="cls-6" d="M99.54,67.41s0-.24.12-.63a8.12,8.12,0,0,1,.52-1.53c.28-.57.71-1.23,1.26-1.27a1.22,1.22,0,0,1,.42.06l.21.11c.05,0,.1.06.15.13a2.21,2.21,0,0,1,.53.93,5.42,5.42,0,0,1,.25,1.21,6.38,6.38,0,0,1,0,1.23c-.07.43-.09.87-.17,1.24s-.14.74-.21,1.07-.15.64-.21.92-.14.5-.19.7c-.11.39-.17.62-.17.62s.11-.19.29-.55c.08-.18.21-.39.31-.66s.24-.55.36-.88.23-.71.34-1.11a11.49,11.49,0,0,0,.26-1.25,5.11,5.11,0,0,0,.05-1.46,6.53,6.53,0,0,0-.27-1.44,3.07,3.07,0,0,0-.76-1.26,2.32,2.32,0,0,0-.3-.22c-.12-.06-.16-.06-.3-.12a1.59,1.59,0,0,0-.65,0,1.69,1.69,0,0,0-1.07.75A3.85,3.85,0,0,0,99.82,65a6.71,6.71,0,0,0-.29,1.72A4.08,4.08,0,0,0,99.54,67.41Z"/><path class="cls-6" d="M99.54,67.41s-.2-.46,1.23-.56c0,0,1.59.29.66,2.42A6.5,6.5,0,0,0,101,70.7c-.14.71.11,1.68-.27,2.31-.49.82-1.75.36-1.82-.58a5.44,5.44,0,0,1,1-2.45A1.9,1.9,0,0,0,99.54,67.41Z"/><path class="cls-6" d="M98.86,72.34a.41.41,0,0,0-.11.12,1.15,1.15,0,0,0-.21.39,1.27,1.27,0,0,0-.08.31,1.35,1.35,0,0,0,0,.35c0,.12,0,.25,0,.38s.08.23.12.36a1.37,1.37,0,0,0,.16.32,2.52,2.52,0,0,0,.21.25,1,1,0,0,0,.44.31,1.35,1.35,0,0,0,.48.12,3.27,3.27,0,0,0-.22-.52,1.32,1.32,0,0,0-.12-.2,1.73,1.73,0,0,0-.1-.24,2.39,2.39,0,0,0-.12-.22,1,1,0,0,1-.09-.24,2.64,2.64,0,0,1-.17-.47,2,2,0,0,1-.07-.23c0-.08,0-.16,0-.23C98.89,72.6,98.86,72.34,98.86,72.34Z"/><path class="cls-3" d="M53.38,68.56c.69,4.28-.51,8.07-2.67,8.48s-4.48-2.72-5.17-7,.51-8.07,2.68-8.47S52.69,64.29,53.38,68.56Z"/><path class="cls-6" d="M50.78,67.41s0-.24-.12-.63a8.91,8.91,0,0,0-.52-1.53c-.27-.57-.71-1.23-1.26-1.27a1.22,1.22,0,0,0-.42.06l-.21.11s-.1.06-.15.13a2.21,2.21,0,0,0-.53.93,5.42,5.42,0,0,0-.25,1.21,5.64,5.64,0,0,0,0,1.23c.06.43.08.87.16,1.24s.14.74.21,1.07.15.64.21.92.14.5.19.7c.12.39.17.62.17.62s-.11-.19-.29-.55c-.08-.18-.21-.39-.31-.66s-.23-.55-.36-.88S47.07,69.4,47,69a11.49,11.49,0,0,1-.26-1.25,5.5,5.5,0,0,1,0-1.46,6.53,6.53,0,0,1,.27-1.44,3.07,3.07,0,0,1,.76-1.26,1.89,1.89,0,0,1,.31-.22,2.85,2.85,0,0,1,.29-.12,1.59,1.59,0,0,1,.65,0A1.69,1.69,0,0,1,50,64,3.85,3.85,0,0,1,50.5,65a6.71,6.71,0,0,1,.29,1.72A4.08,4.08,0,0,1,50.78,67.41Z"/><path class="cls-6" d="M50.78,67.41s.2-.46-1.23-.56c0,0-1.59.29-.66,2.42a6.5,6.5,0,0,1,.48,1.43c.14.71-.11,1.68.27,2.31.49.82,1.75.36,1.82-.58a5.33,5.33,0,0,0-1-2.45A1.91,1.91,0,0,1,50.78,67.41Z"/><path class="cls-6" d="M51.46,72.34a.41.41,0,0,1,.11.12,1.15,1.15,0,0,1,.21.39,1.27,1.27,0,0,1,.08.31,1,1,0,0,1,0,.35c0,.12,0,.25,0,.38s-.08.23-.12.36a1.37,1.37,0,0,1-.16.32,2.52,2.52,0,0,1-.21.25,1,1,0,0,1-.44.31,1.35,1.35,0,0,1-.48.12,3.27,3.27,0,0,1,.22-.52,1.32,1.32,0,0,1,.12-.2,1.73,1.73,0,0,1,.1-.24,2.39,2.39,0,0,1,.12-.22,1,1,0,0,0,.09-.24,2,2,0,0,0,.17-.47,2,2,0,0,0,.07-.23c0-.08,0-.16.05-.23A5.26,5.26,0,0,0,51.46,72.34Z"/><path class="cls-3" d="M75.42,22.49h-.68c-17.22.15-26.89,5.05-24.25,36.43l3,25A10.41,10.41,0,0,0,59,91.21l9.35,6.93s4.44,2,6.75,1.78c2.3.19,6.74-1.78,6.74-1.78l9.35-6.93a10.41,10.41,0,0,0,5.53-7.29L99.83,59.5C102.47,28.12,92.64,22.64,75.42,22.49Z"/><path class="cls-7" d="M62.4,61c0,1.63.93,2.94,2,2.94s2-1.34,2-3-.92-3-2-2.94S62.39,59.34,62.4,61Z"/><path class="cls-8" d="M63.62,60a.88.88,0,1,1-.87-.88A.87.87,0,0,1,63.62,60Z"/><path class="cls-7" d="M87.92,61c0,1.63-.93,2.94-2,2.94s-2-1.34-2-3,.92-3,2-2.94S87.93,59.34,87.92,61Z"/><path class="cls-8" d="M86.7,60a.88.88,0,1,0,.87-.88A.87.87,0,0,0,86.7,60Z"/><path class="cls-9" d="M78.14,76.85a5.72,5.72,0,0,1-1.63,1.08,6.63,6.63,0,0,1-1.94.53,6,6,0,0,1-2.1-.11,5.53,5.53,0,0,1-1-.31,7.22,7.22,0,0,1-1-.47L70,77.34l0-.64a17.58,17.58,0,0,1,0-1.91c0-.62.08-1.23.13-1.85s.16-1.22.26-1.83.24-1.21.39-1.81a24.29,24.29,0,0,1,1.18-3.49,14.89,14.89,0,0,1,.8-1.66c.29-.55.6-1.08.94-1.6,0,.63-.07,1.24-.14,1.84s-.17,1.19-.22,1.79-.14,1.18-.22,1.77-.12,1.17-.21,1.75-.15,1.17-.21,1.75-.16,1.16-.19,1.74-.12,1.16-.16,1.73-.09,1.17-.12,1.69l-.49-.87c.22.13.41.31.64.43a6.61,6.61,0,0,0,.7.36,5.22,5.22,0,0,0,.75.28c.26,0,.53.14.8.18a6,6,0,0,0,.85.09,8.58,8.58,0,0,0,.88,0A11,11,0,0,0,78.14,76.85Z"/><path class="cls-10" d="M68.67,55A1.41,1.41,0,0,1,67.07,56a15.62,15.62,0,0,0-8.19.69,1.47,1.47,0,0,1-1.75-.8h0a1.29,1.29,0,0,1,.71-1.83,18.48,18.48,0,0,1,9.64-.86A1.44,1.44,0,0,1,68.67,55Z"/><path class="cls-10" d="M80.87,55A1.42,1.42,0,0,0,82.48,56a15.63,15.63,0,0,1,8.19.69,1.46,1.46,0,0,0,1.74-.8h0a1.29,1.29,0,0,0-.7-1.83,18.53,18.53,0,0,0-9.65-.86A1.44,1.44,0,0,0,80.87,55Z"/><polygon class="cls-2" points="75 120.42 73.04 110.41 62.67 104.13 61.16 110.44 75 120.42"/><polygon class="cls-11" points="73.04 110.41 68.13 119.39 56.15 111.25 62.67 104.13 73.04 110.41"/><polygon class="cls-2" points="75 120.42 76.96 110.41 87.33 104.13 88.84 110.44 75 120.42"/><polygon class="cls-11" points="76.96 110.41 81.86 119.39 93.86 111.25 87.33 104.13 76.96 110.41"/><path class="cls-12" d="M76,87.87a5.32,5.32,0,0,1-2.42,0"/><path class="cls-8" d="M69.34,82.86l1.4,2.77S77,89.16,81.47,83A110,110,0,0,1,69.34,82.86Z"/><path class="cls-10" d="M95.61,48.06s2.25,1.41,1.75,6.82L97.13,65.6H99s-.13-4.06,3.12-4l1.61-24s1.26-9.56-7-15.12c0,0-6.9-1.81-8.83-7.46a13.47,13.47,0,0,0,0,5s-5.55-1.57-4-8.16c0,0-4.44,1.79-4.47,6.28,0,0-.2-5.34-3.39-6.28,0,0,1.17,4.08-2.42,5.65,0,0-15.42-.63-20,6.9,0,0-8.32,4.09-7,21.52l1.61,15.63a8.93,8.93,0,0,1,3.67,4h1.68V51.41s-.09-3.35,2.57-3.35c0,0-2.57-12.55,5-14.43,0,0,11.35-3,14.25,2.64,0,0,.47-4.59,14.35-2.82C89.75,33.45,98.43,34.68,95.61,48.06Z"/></g></g></svg>